HIERARCHY
ROOT Hips
{
  OFFSET 44.1156 95.9833 19.2854
  CHANNELS 6 Xposition Yposition Zposition Zrotation Xrotation Yrotation
  JOINT spine
  {
    OFFSET 0 8.13249 0.467659
    CHANNELS 3 Zrotation Xrotation Yrotation
    JOINT spine1
    {
      OFFSET 0 10.3498 0
      CHANNELS 3 Zrotation Xrotation Yrotation
      JOINT spine2
      {
        OFFSET 0 9.91699 0
        CHANNELS 3 Zrotation Xrotation Yrotation
        JOINT Neck
        {
          OFFSET 0 25.461 1.2139
          CHANNELS 3 Zrotation Xrotation Yrotation
          JOINT Head
          {
            OFFSET 0 7.69245 0
            CHANNELS 3 Zrotation Xrotation Yrotation
            End Site
            {
              OFFSET 0 18.62 -6.14063
            }
          }
        }
        JOINT RightShoulder
        {
          OFFSET -4.17575 10.7096 -0.581445
          CHANNELS 3 Zrotation Xrotation Yrotation
          JOINT RightArm
          {
            OFFSET 0 14.0466 0
            CHANNELS 3 Zrotation Xrotation Yrotation
            JOINT RightArmRoll
            {
              OFFSET 0 7.09098 0
              CHANNELS 3 Zrotation Xrotation Yrotation
              JOINT RightForeArm
              {
                OFFSET 0 20.6535 0
                CHANNELS 3 Zrotation Xrotation Yrotation
                JOINT RightForeArmRoll
                {
                  OFFSET 0 7.95718 0
                  CHANNELS 3 Zrotation Xrotation Yrotation
                  JOINT RightHand
                  {
                    OFFSET 0 15.9683 0
                    CHANNELS 3 Zrotation Xrotation Yrotation
                    End Site
                    {
                      OFFSET 0 0 0
                    }
                  }
                }
              }
            }
          }
        }
        JOINT LeftShoulder
        {
          OFFSET 4.17575 10.7096 -0.581445
          CHANNELS 3 Zrotation Xrotation Yrotation
          JOINT LeftArm
          {
            OFFSET 0 14.0466 0
            CHANNELS 3 Zrotation Xrotation Yrotation
            JOINT LeftArmRoll
            {
              OFFSET 0 7.09098 0
              CHANNELS 3 Zrotation Xrotation Yrotation
              JOINT LeftForeArm
              {
                OFFSET 0 20.6535 0
                CHANNELS 3 Zrotation Xrotation Yrotation
                JOINT LeftForeArmRoll
                {
                  OFFSET 0 7.95718 0
                  CHANNELS 3 Zrotation Xrotation Yrotation
                  JOINT LeftHand
                  {
                    OFFSET 0 15.9683 0
                    CHANNELS 3 Zrotation Xrotation Yrotation
                    End Site
                    {
                      OFFSET 0 0 0
                    }
                  }
                }
              }
            }
          }
        }
      }
    }
  }
  JOINT RightUpLeg
  {
    OFFSET -7.20834 -1.32182 -1.10884
    CHANNELS 3 Zrotation Xrotation Yrotation
    JOINT RightUpLegRoll
    {
      OFFSET 0 18.7238 0
      CHANNELS 3 Zrotation Xrotation Yrotation
      JOINT RightLeg
      {
        OFFSET 0 -23.1866 0
        CHANNELS 3 Zrotation Xrotation Yrotation
        JOINT RightLegRoll
        {
          OFFSET 0 23.2624 0
          CHANNELS 3 Zrotation Xrotation Yrotation
          JOINT RightFoot
          {
            OFFSET 0 19.3621 0
            CHANNELS 3 Zrotation Xrotation Yrotation
            JOINT RightToeBase
            {
              OFFSET 0 16.1857 0
              CHANNELS 3 Zrotation Xrotation Yrotation
              End Site
              {
                OFFSET 0.00686052 7.83863 -0.903522
              }
            }
          }
        }
      }
    }
  }
  JOINT LeftUpLeg
  {
    OFFSET 7.20834 -1.32182 -1.10884
    CHANNELS 3 Zrotation Xrotation Yrotation
    JOINT LeftUpLegRoll
    {
      OFFSET 0 18.7239 0
      CHANNELS 3 Zrotation Xrotation Yrotation
      JOINT LeftLeg
      {
        OFFSET 0 23.1865 0
        CHANNELS 3 Zrotation Xrotation Yrotation
        JOINT LeftLegRoll
        {
          OFFSET 0 23.4775 0
          CHANNELS 3 Zrotation Xrotation Yrotation
          JOINT LeftFoot
          {
            OFFSET 0 19.147 0
            CHANNELS 3 Zrotation Xrotation Yrotation
            JOINT LeftToeBase
            {
              OFFSET 0 16.1857 0
              CHANNELS 3 Zrotation Xrotation Yrotation
              End Site
              {
                OFFSET -0.0307459 7.83862 -0.903522
              }
            }
          }
        }
      }
    }
  }
}
MOTION
Frames: 12
Frame Time: 0.00208333
60.8604 96.6966 16.5643 -2.40242 -0.397523 46.4735 -0.324813 -1.2744 1.03499 -0.636579 1.44839 2.11498 -0.662429 3.09294 2.12685 -4.43677 -9.63352 5.46665 4.44579 -6.35719 5.90871 36.8881 -12.3437 -8.33269 -102.2 44.4761 -134.208 -2.5767e-006 -4.83063e-006 -7.71224e-006 -14.7282 40.8676 7.24456 1.12062e-006 3.08896e-006 -3.00073 8.02942 -4.95142 0.697653 -59.476 -21.0327 13.2122 -110.68 34.2353 -0.635165 5.09839e-006 2.38078e-006 7.14033e-006 -7.99029 1.74326 1.0861 1.76213e-006 -2.97358e-006 3.00752 -8.02905 -4.95144 -0.697679 172.62 2.74595 6.2428 180 7.01542e-015 178.9 176.379 26.5446 179.967 -4.58812e-006 -4.01625e-006 0.394636 -20.6769 70.2741 21.64 7.7206 31.2377 3.59157 -179.747 8.08501 5.34265 4.54188e-006 -4.6773e-006 -0.932773 1.7199 -7.41802 0.340826 -1.60306e-007 3.14476e-006 0.167644 16.945 65.35 -17.5646 -8.13649 25.2327 3.48723 
60.8649 96.701 16.5978 -2.42396 -0.409119 46.5997 -0.325717 -1.27532 1.03691 -0.638339 1.44652 2.11939 -0.664244 3.09107 2.13129 -4.53828 -9.68042 5.43032 4.58282 -6.35909 5.88852 36.6047 -12.388 -8.38403 -102.198 44.325 -134.668 -2.5767e-006 -4.83063e-006 -7.71224e-006 -14.825 39.8584 7.11006 1.12062e-006 3.08896e-006 -3.00072 8.02942 -4.95142 0.697653 -59.5642 -21.0588 13.2174 -110.674 34.1655 -0.626157 5.09839e-006 2.38078e-006 7.14033e-006 -8.00348 1.87921 1.09712 1.76213e-006 -2.97358e-006 3.00758 -8.02905 -4.95144 -0.697679 172.659 2.72563 6.21391 180 7.01542e-015 178.9 176.39 26.4931 179.965 -4.58812e-006 -4.01625e-006 0.394417 -20.6876 70.2871 21.6534 7.7269 31.1831 3.56946 -179.726 8.08169 5.34016 4.54188e-006 -4.6773e-006 -0.933276 1.73688 -7.40594 0.341779 -1.60306e-007 3.14476e-006 0.168177 16.9421 65.3486 -17.5638 -8.13649 25.2327 3.48723 
60.8177 96.6971 16.5995 -2.44166 -0.41919 46.7263 -0.327638 -1.27606 1.03894 -0.642138 1.44499 2.12397 -0.668101 3.08953 2.13594 -4.63541 -9.72775 5.39501 4.71612 -6.35683 5.86891 36.3276 -12.4321 -8.43535 -102.212 44.1692 -135.103 -2.5767e-006 -4.83063e-006 -7.71224e-006 -14.9136 38.8627 6.97816 1.12062e-006 3.08896e-006 -3.00071 8.02942 -4.95142 0.697653 -59.6514 -21.0832 13.2216 -110.667 34.0951 -0.608105 5.09839e-006 2.38078e-006 7.14033e-006 -8.02248 2.00622 1.10663 1.76213e-006 -2.97358e-006 3.0076 -8.02905 -4.95144 -0.697679 172.692 2.70658 6.18662 180 7.01542e-015 178.9 176.404 26.4497 179.961 -4.58812e-006 -4.01625e-006 0.39454 -20.7007 70.3023 21.6692 7.73337 31.128 3.54576 -179.71 8.08089 5.34137 4.54188e-006 -4.6773e-006 -0.933723 1.75395 -7.3975 0.34289 -1.60306e-007 3.14476e-006 0.168652 16.9409 65.349 -17.5641 -8.13649 25.2327 3.48723 
60.8368 96.703 16.6409 -2.4549 -0.42741 46.8536 -0.330778 -1.27656 1.04114 -0.648378 1.44391 2.12881 -0.674403 3.08845 2.14089 -4.7275 -9.7759 5.36067 4.84502 -6.35003 5.84977 36.0576 -12.476 -8.48667 -102.243 44.008 -135.508 -2.5767e-006 -4.83063e-006 -7.71224e-006 -14.9938 37.8807 6.85008 1.12062e-006 3.08896e-006 -3.0007 8.02942 -4.95142 0.697653 -59.7376 -21.1057 13.2249 -110.657 34.0249 -0.579516 5.09839e-006 2.38078e-006 7.14033e-006 -8.04806 2.12234 1.11432 1.76213e-006 -2.97358e-006 3.00759 -8.02905 -4.95144 -0.697679 172.719 2.68893 6.16128 180 7.01542e-015 178.9 176.421 26.4157 179.957 -4.58812e-006 -4.01625e-006 0.395049 -20.7165 70.3202 21.6876 7.74002 31.0725 3.52028 -179.7 8.08301 5.34695 4.54188e-006 -4.6773e-006 -0.934102 1.77107 -7.3932 0.344169 -1.60306e-007 3.14476e-006 0.169062 16.9419 65.3512 -17.5656 -8.13649 25.2327 3.48723 
60.8799 96.7086 16.6885 -2.46405 -0.43406 46.9815 -0.335073 -1.27696 1.04348 -0.65693 1.44303 2.13384 -0.683022 3.08756 2.14606 -4.81206 -9.82385 5.32785 4.96848 -6.33826 5.83166 35.7941 -12.5221 -8.54059 -102.285 43.8448 -135.901 -2.5767e-006 -4.83063e-006 -7.71224e-006 -15.0654 36.9101 6.719 1.12062e-006 3.08896e-006 -3.00069 8.02942 -4.95142 0.697653 -59.822 -21.1264 13.2271 -110.646 33.9521 -0.538648 5.09839e-006 2.38078e-006 7.14033e-006 -8.08129 2.22964 1.12033 1.76213e-006 -2.97358e-006 3.00756 -8.02905 -4.95144 -0.697679 172.74 2.67301 6.13749 180 7.01542e-015 178.9 176.441 26.3919 179.952 -4.58812e-006 -4.01625e-006 0.395977 -20.7354 70.341 21.7091 7.7469 31.0148 3.49349 -179.695 8.08862 5.35686 4.54188e-006 -4.6773e-006 -0.934424 1.78858 -7.39354 0.345689 -1.60306e-007 3.14476e-006 0.169414 16.9448 65.3554 -17.5684 -8.13649 25.2327 3.48723 
60.8752 96.7125 16.7135 -2.47018 -0.439733 47.1097 -0.340245 -1.27738 1.04591 -0.667236 1.44206 2.13894 -0.693396 3.08659 2.15134 -4.88804 -9.87042 5.297 5.08651 -6.32164 5.81514 35.5355 -12.5721 -8.59905 -102.329 43.6836 -136.299 -2.5767e-006 -4.83063e-006 -7.71224e-006 -15.1288 35.9485 6.57841 1.12062e-006 3.08896e-006 -3.00068 8.02942 -4.95142 0.697653 -59.904 -21.1451 13.2283 -110.635 33.8736 -0.485988 5.09839e-006 2.38078e-006 7.14033e-006 -8.12207 2.33195 1.12512 1.76213e-006 -2.97358e-006 3.00752 -8.02905 -4.95144 -0.697679 172.756 2.65896 6.11452 180 7.01542e-015 178.9 176.465 26.3778 179.946 -4.58812e-006 -4.01625e-006 0.397299 -20.7574 70.3649 21.7336 7.75404 30.9534 3.46597 -179.695 8.09772 5.37036 4.54188e-006 -4.6773e-006 -0.934708 1.80679 -7.39831 0.347493 -1.60306e-007 3.14476e-006 0.169725 16.9487 65.3612 -17.5723 -8.13649 25.2327 3.48723 
60.8905 96.7196 16.7536 -2.47364 -0.444576 47.238 -0.346174 -1.27785 1.0484 -0.679052 1.441 2.14407 -0.705284 3.08553 2.15667 -4.95692 -9.91573 5.26795 5.20003 -6.30063 5.80009 35.2814 -12.6249 -8.66098 -102.378 43.5241 -136.697 -2.5767e-006 -4.83063e-006 -7.71224e-006 -15.1845 34.9968 6.42985 1.12062e-006 3.08896e-006 -3.00067 8.02942 -4.95142 0.697653 -59.984 -21.162 13.2286 -110.623 33.7902 -0.423392 5.09839e-006 2.38078e-006 7.14033e-006 -8.16937 2.42987 1.12886 1.76213e-006 -2.97358e-006 3.00749 -8.02905 -4.95144 -0.697679 172.769 2.64658 6.09224 180 7.01542e-015 178.9 176.492 26.3721 179.939 -4.58812e-006 -4.01625e-006 0.39897 -20.7821 70.3912 21.7607 7.76139 30.889 3.43768 -179.699 8.10976 5.38697 4.54188e-006 -4.6773e-006 -0.93496 1.82558 -7.40693 0.349546 -1.60306e-007 3.14476e-006 0.169997 16.9536 65.3683 -17.5771 -8.13649 25.2327 3.48722 
60.8974 96.7211 16.7847 -2.47475 -0.448731 47.3662 -0.352736 -1.27833 1.05093 -0.692136 1.43989 2.14921 -0.718439 3.08441 2.16203 -5.02018 -9.95989 5.24052 5.30994 -6.27567 5.78636 35.0314 -12.6795 -8.72535 -102.433 43.3661 -137.094 -2.5767e-006 -4.83063e-006 -7.71224e-006 -15.2327 34.0555 6.27478 1.12062e-006 3.08896e-006 -3.00066 8.02942 -4.95142 0.697653 -60.0624 -21.1772 13.2279 -110.61 33.7022 -0.352712 5.09839e-006 2.38078e-006 7.14033e-006 -8.22217 2.52402 1.13171 1.76213e-006 -2.97358e-006 3.00745 -8.02905 -4.95144 -0.697679 172.778 2.63564 6.07055 180 7.01542e-015 178.901 176.521 26.3736 179.932 -4.58812e-006 -4.01625e-006 0.400945 -20.809 70.4198 21.7901 7.76892 30.8222 3.40859 -179.706 8.12424 5.40622 4.54188e-006 -4.6773e-006 -0.935186 1.84484 -7.41883 0.35181 -1.60306e-007 3.14476e-006 0.170236 16.9592 65.3766 -17.5828 -8.13649 25.2327 3.48722 
60.9109 96.727 16.8095 -2.47385 -0.452342 47.4942 -0.35981 -1.27883 1.05348 -0.706244 1.43873 2.15432 -0.732619 3.08325 2.16737 -5.07929 -10.003 5.21451 5.41715 -6.24721 5.77384 34.7851 -12.735 -8.79108 -102.494 43.2095 -137.486 -2.5767e-006 -4.83063e-006 -7.71224e-006 -15.2734 33.1254 6.11454 1.12062e-006 3.08896e-006 -3.00065 8.02942 -4.95142 0.697653 -60.1397 -21.1909 13.2263 -110.596 33.6104 -0.27579 5.09839e-006 2.38078e-006 7.14033e-006 -8.27947 2.615 1.13384 1.76213e-006 -2.97358e-006 3.00742 -8.02905 -4.95144 -0.697679 172.785 2.62592 6.04935 180 7.01542e-015 178.901 176.553 26.3811 179.923 -4.58812e-006 -4.01625e-006 0.403179 -20.8378 70.45 21.8213 7.7766 30.7533 3.37865 -179.715 8.14062 5.42764 4.54188e-006 -4.6773e-006 -0.935391 1.86448 -7.43346 0.35425 -1.60306e-007 3.14476e-006 0.170445 16.9656 65.386 -17.5891 -8.13649 25.2327 3.48722 
60.9194 96.7299 16.8446 -2.47126 -0.45555 47.6217 -0.367275 -1.27935 1.05602 -0.721133 1.43754 2.15936 -0.747579 3.08206 2.17266 -5.13573 -10.0452 5.18974 5.52257 -6.2157 5.7624 34.542 -12.7904 -8.85712 -102.563 43.0542 -137.87 -2.5767e-006 -4.83063e-006 -7.71224e-006 -15.3067 32.2072 5.95042 1.12062e-006 3.08896e-006 -3.00065 8.02942 -4.95142 0.697653 -60.2162 -21.2032 13.2239 -110.581 33.5153 -0.194462 5.09839e-006 2.38078e-006 7.14033e-006 -8.34023 2.70342 1.13541 1.76213e-006 -2.97358e-006 3.00739 -8.02905 -4.95144 -0.697679 172.789 2.61721 6.02852 180 7.01542e-015 178.902 176.587 26.3934 179.915 -4.58812e-006 -4.01625e-006 0.405627 -20.868 70.4815 21.8539 7.78437 30.6831 3.34781 -179.727 8.15838 5.45077 4.54188e-006 -4.6773e-006 -0.935579 1.88439 -7.45023 0.35683 -1.60306e-007 3.14476e-006 0.170627 16.9725 65.3961 -17.596 -8.13649 25.2327 3.48722 
60.929 96.738 16.8967 -2.46734 -0.458494 47.7485 -0.375008 -1.27987 1.05853 -0.736559 1.43635 2.1643 -0.763076 3.08085 2.17786 -5.191 -10.0867 5.16604 5.62711 -6.18158 5.75189 34.3018 -12.8448 -8.92242 -102.641 42.9003 -138.244 -2.5767e-006 -4.83063e-006 -7.71224e-006 -15.3323 31.3017 5.78363 1.12062e-006 3.08896e-006 -3.00064 8.02942 -4.95142 0.697653 -60.2922 -21.2142 13.2207 -110.563 33.4175 -0.110554 5.09839e-006 2.38078e-006 7.14033e-006 -8.40345 2.78989 1.1366 1.76213e-006 -2.97358e-006 3.00736 -8.02905 -4.95144 -0.697679 172.79 2.6093 6.00795 180 7.01542e-015 178.902 176.622 26.4092 179.906 -4.58812e-006 -4.01625e-006 0.408244 -20.8992 70.5139 21.8875 7.79221 30.6121 3.31603 -179.741 8.17699 5.47514 4.54188e-006 -4.6773e-006 -0.935756 1.90446 -7.46858 0.359513 -1.60306e-007 3.14476e-006 0.170786 16.9798 65.4069 -17.6034 -8.13649 25.2327 3.48722 
60.9409 96.7393 16.9251 -2.46239 -0.461314 47.8745 -0.382888 -1.28038 1.061 -0.752279 1.43515 2.1691 -0.778866 3.07965 2.18293 -5.24656 -10.1275 5.14322 5.73167 -6.14531 5.74219 34.064 -12.8972 -8.98589 -102.73 42.7476 -138.603 -2.5767e-006 -4.83063e-006 -7.71224e-006 -15.3502 30.4096 5.61531 1.12062e-006 3.08896e-006 -3.00063 8.02942 -4.95142 0.697653 -60.3683 -21.2241 13.2168 -110.544 33.3175 -0.0258839 5.09839e-006 2.38078e-006 7.14033e-006 -8.46813 2.87503 1.13756 1.76213e-006 -2.97358e-006 3.00733 -8.02905 -4.95144 -0.697679 172.791 2.60195 5.98753 180 7.01542e-015 178.903 176.659 26.4274 179.896 -4.58812e-006 -4.01625e-006 0.410984 -20.9311 70.5467 21.9218 7.80009 30.5408 3.28327 -179.755 8.19594 5.50028 4.54188e-006 -4.6773e-006 -0.935927 1.92457 -7.48795 0.362265 -1.60306e-007 3.14476e-006 0.170926 16.9875 65.4182 -17.611 -8.13649 25.2327 3.48722 
